<?xml version="1.0" standalone="no"?>
<!DOCTYPE svg PUBLIC "-//W3C//DTD SVG 20010904//EN"
 "http://www.w3.org/TR/2001/REC-SVG-20010904/DTD/svg10.dtd">
<svg version="1.0" xmlns="http://www.w3.org/2000/svg"
 width="198.000000pt" height="198.000000pt" viewBox="0 0 198.000000 198.000000"
 preserveAspectRatio="xMidYMid meet">
<metadata>
Created by potrace 1.16, written by Peter Selinger 2001-2019
</metadata>
<g transform="translate(0.000000,198.000000) scale(0.100000,-0.100000)"
fill="#000000" stroke="none">
<path d="M336 954 c-3 -9 -6 -93 -6 -189 0 -138 3 -175 14 -184 11 -9 63 -11
181 -9 161 3 167 4 186 27 29 35 26 108 -7 156 -21 32 -24 42 -15 62 20 43 14
101 -14 128 -23 24 -28 25 -178 25 -132 0 -156 -2 -161 -16z m294 -81 c0 -49
-24 -63 -112 -63 l-78 0 0 -35 0 -35 83 0 c104 0 131 -13 135 -63 l3 -37 -130
0 -131 0 0 130 0 130 115 0 115 0 0 -27z"/>
<path d="M826 939 c-25 -30 -26 -35 -26 -169 0 -132 1 -140 24 -167 l24 -28
162 -3 c114 -2 165 0 176 9 10 8 14 37 14 110 0 87 -2 99 -19 109 -11 5 -72
10 -135 10 l-116 0 0 -35 0 -35 100 0 100 0 0 -50 0 -51 -127 3 -128 3 0 125
0 125 158 3 157 3 0 34 0 35 -169 0 -169 0 -26 -31z"/>
<path d="M1280 782 c0 -133 4 -192 12 -200 8 -8 64 -12 185 -12 l173 0 0 35 0
35 -150 0 -150 0 0 165 0 165 -35 0 -35 0 0 -188z"/>
</g>
</svg>
